<svg width="49" height="49" viewBox="0 0 49 49" fill="none" xmlns="http://www.w3.org/2000/svg">
<g clip-path="url(#clip0_477_274)">
<path d="M49.25 24.0001C49.25 21.5757 48.148 19.4174 46.4333 17.9218C44.9133 10.5881 39.1681 4.91341 31.6726 3.41775C30.1503 1.74241 27.9605 0.666748 25.5 0.666748C12.4043 0.666748 1.75 11.1341 1.75 24.0001C1.75 26.3708 2.11812 28.6597 2.79025 30.8157L2.79262 30.8251C5.77087 40.3708 14.822 47.3334 25.5 47.3334C25.6591 47.3334 25.8111 47.3124 25.9703 47.3101C26.013 47.3124 26.051 47.3334 26.0938 47.3334C26.1674 47.3334 26.2339 47.2984 26.3051 47.2938C39.028 46.8714 49.25 36.5978 49.25 24.0001ZM8.628 17.9194C7.95113 18.6731 7.37638 19.4688 6.88 20.2854C8.63988 11.7664 16.3183 5.33342 25.5 5.33342C27.4665 5.33342 29.0625 6.89908 29.0625 8.83342C29.0625 10.7677 27.4665 12.3334 25.5 12.3334C24.9585 12.3334 23.4053 12.3334 23.125 12.3334C16.836 12.3334 11.9601 14.2141 8.628 17.9194ZM30.4163 37.0994C28.3666 39.4771 24.8968 41.1454 20.5481 42.0018C15.5203 40.6648 11.3118 37.3514 8.8465 32.9671C8.7705 32.1738 8.2385 25.3814 12.2071 20.9877C12.9505 20.1664 13.8578 19.5154 14.8458 18.9461C14.0881 20.4814 13.625 22.1824 13.625 24.0001C13.625 30.4331 18.9521 35.6668 25.5 35.6668C28.0769 35.6668 30.4471 34.8361 32.3946 33.4594C31.979 34.8221 31.3283 36.0424 30.4163 37.0994ZM25.5 31.0001C21.5718 31.0001 18.375 27.8594 18.375 24.0001C18.375 20.1407 21.5718 17.0001 25.5 17.0001C30.0315 17.0001 33.7151 13.4137 33.7983 8.98042C36.8786 10.3827 39.3748 12.8257 40.7998 15.8474C36.2801 15.9221 32.625 19.5434 32.625 24.0001C32.625 27.8594 29.4283 31.0001 25.5 31.0001ZM33.1024 41.0964C33.4301 40.7791 33.746 40.4571 34.0405 40.1164C37.204 36.4484 37.375 31.0001 37.375 26.3334C37.375 26.2051 37.375 24.5507 37.375 24.0001C37.375 22.0681 38.971 20.5001 40.9375 20.5001C42.904 20.5001 44.5 22.0681 44.5 24.0001C44.5 31.6371 39.8023 38.2077 33.1024 41.0964Z" fill="black"/>
</g>
<defs>
<clipPath id="clip0_477_274">
<rect width="49" height="49" fill="white"/>
</clipPath>
</defs>
</svg>
