<svg width="37" height="54" viewBox="0 0 37 54" fill="none" xmlns="http://www.w3.org/2000/svg">
<path d="M32.4639 18.7126C35.1279 16.9086 36.8817 13.8836 36.8817 10.4626C36.8817 4.98456 32.3751 0.518555 26.8473 0.518555H10.1196C4.59182 0.518555 0.0963135 4.98456 0.0963135 10.4626C0.0963135 13.9056 1.86122 16.9416 4.54742 18.7346C1.86122 20.5166 0.0963135 23.5526 0.0963135 26.9956C0.0963135 30.4386 1.88341 33.4966 4.58071 35.2785C1.88341 37.0715 0.0963135 40.1186 0.0963135 43.5726C0.0963135 49.0506 4.59182 53.5165 10.1196 53.5165C15.6474 53.5165 20.154 49.0506 20.154 43.5726V34.3436C21.9411 35.9386 24.3054 36.9066 26.8806 36.9066C32.4084 36.9066 36.9039 32.4516 36.9039 26.9626C36.9039 23.5306 35.139 20.4946 32.4639 18.7126ZM16.824 43.5726C16.824 47.2356 13.8159 50.2165 10.1196 50.2165C6.42332 50.2165 3.42631 47.2356 3.42631 43.5726C3.42631 39.9096 6.42332 36.9286 10.1196 36.9286H16.824V43.5726ZM16.824 33.6286H10.1196C6.42332 33.6286 3.42631 30.6586 3.42631 26.9956C3.42631 23.5636 6.05702 20.7256 9.43142 20.3846H9.46472C9.68672 20.3626 9.89762 20.3516 10.1196 20.3516H16.824V33.6286ZM16.824 17.1066H10.1196C9.89762 17.1066 9.68672 17.0956 9.46472 17.0736H9.43142C6.05702 16.7326 3.42631 13.8946 3.42631 10.4626C3.42631 6.79956 6.42332 3.81855 10.1196 3.81855H16.824V17.1066ZM20.154 3.81855H26.8473C30.5436 3.81855 33.5517 6.79956 33.5517 10.4626C33.5517 13.8616 30.9543 16.6776 27.6243 17.0626C27.369 17.0956 27.1137 17.1066 26.8473 17.1066H20.154V3.81855ZM26.8806 33.6066C23.1843 33.6066 20.1762 30.6256 20.1762 26.9626C20.1762 23.6296 22.6626 20.8686 25.8927 20.4066C26.2146 20.3516 26.5476 20.3296 26.8806 20.3296C27.1359 20.3296 27.3912 20.3406 27.6354 20.3736C30.9765 20.7366 33.5739 23.5526 33.5739 26.9626C33.5739 30.6256 30.5769 33.6066 26.8806 33.6066Z" fill="black"/>
</svg>
