<svg width="45" height="45" viewBox="0 0 45 45" fill="none" xmlns="http://www.w3.org/2000/svg">
<g clip-path="url(#clip0_483_359)">
<path d="M34.16 -0.131435C34.3754 -0.0260188 40.6775 2.98065 43.7552 4.44961C44.7716 4.93429 45.4167 5.95867 45.4167 7.08388V37.861C45.4167 38.985 44.7761 40.0083 43.7632 40.4952C40.8436 41.9023 35.0423 44.6959 34.6561 44.8792C34.372 45.0144 33.6249 45.4166 33.0199 45.4166C32.243 45.4166 31.7217 45.0545 31.2095 44.5801L33.9583 35.9188V1.54836L31.3756 0.247835C31.9279 -0.291852 32.6933 -0.416748 33.1459 -0.416748C33.5607 -0.416748 33.8987 -0.258623 34.16 -0.131435Z" fill="black"/>
<path d="M5.31246 33.8393L33.9583 12.0421V1.68031C33.9583 0.191868 32.0539 -0.391361 31.2805 0.323639C30.53 1.01572 0.337252 28.5031 0.337252 28.5031C-0.693998 29.4542 -0.635561 31.1007 0.459856 31.9773C0.459856 31.9773 1.97694 33.389 2.52579 33.7808C3.36913 34.3824 4.47715 34.4511 5.31246 33.8393Z" fill="black"/>
<path d="M5.31246 11.161L33.9583 32.9937V43.0438C33.9583 44.4165 32.3312 45.5566 31.2094 44.5803L0.337252 16.4971C-0.693998 15.5461 -0.635561 13.8995 0.459856 13.0229C0.459856 13.0229 1.97694 11.6113 2.52579 11.2194C3.36913 10.6178 4.47715 10.5491 5.31246 11.161Z" fill="black"/>
</g>
<defs>
<clipPath id="clip0_483_359">
<rect width="45" height="45" fill="white"/>
</clipPath>
</defs>
</svg>
