<?xml version="1.0" encoding="utf-8"?>
<!-- Generator: Adobe Illustrator 25.2.1, SVG Export Plug-In . SVG Version: 6.00 Build 0)  -->
<svg version="1.1" xmlns="http://www.w3.org/2000/svg" xmlns:xlink="http://www.w3.org/1999/xlink" x="0px" y="0px"
	 viewBox="0 0 1920 1920" style="enable-background:new 0 0 1920 1920;" xml:space="preserve">
<style type="text/css">
	.st0{fill:#191919;}
	.st1{fill:#FFFFFF;}
</style>
<g id="Layer_2">
	<path class="st0" d="M1461.1,0L458.9,0C205.5,0,0,205.5,0,458.9l0,1002.2C0,1714.5,205.5,1920,458.9,1920h1002.2
		c253.4,0,458.9-205.5,458.9-458.9V458.9C1920,205.5,1714.5,0,1461.1,0z"/>
</g>
<g id="Layer_1">
	<g id="Layer_3">
		<path class="st1" d="M532.4,1040c-0.3,0.3-0.5,1-0.3,1.6c2.9,8.6,24.9,83.9-0.3,259.4c0,0-11.1,39.6,85.5,138l0.2,0.2
			c1.5,2.1,20.2,32.6,12.7,102.6c0,0.3,0,0.7,0.2,0.8c6.4,12.1,150.2,279.9,417.2,110.6c0,0,225.3-139.6,247.6-445.9v-0.2
			c-0.2-4.4,4.9-191.3,53.8-283.8c16.1-30.5,23.5-76.7,23.5-77.1c1.6-8.6,30.6-74.1-53.4-253.3c0,0-37.1-67.6,35.7-172.4
			c1.3-1.8,2.4-3.6,3.7-5.4c73.6-102-8.8-258-18.1-274.7c-0.5-0.8-1.5-1.1-2.3-0.5c-4.9,3.3-21,15.6-22.3,37.1
			c0,0-3.1,98.4-74.6,177.7c-71.4,79.3-115.8,150.7-106.4,269.8c9.4,119.1-96.8,184.1-96.8,184.1s-126.9,73-139.6,39.7
			c-12.7-33.4,33.4-107.8,33.4-107.8s39.6-65,1.6-134.9c0,0,0,0,0-0.2c-0.8-2-35-83.7-45.9-61.9c-11.1,22.2-30.1,93.7-30.1,93.7
			s-11.1,42.8-33.4,63.5c-22.3,20.7-122.2,168.3-126.9,288.8c-4.7,117.8,173.7,217.3,309,71.5c1.3-1.3,3.4,0.2,2.4,1.8l-19.4,34.2
			c-0.2,0.2-0.2,0.5-0.2,0.8c-0.2,10.9-4.4,247.6-126.7,277.3c-0.2,0-0.3,0-0.5,0c-4.7-0.3-73.5-6.7-95-60.3
			c-22-55.1-81.3-67.9-82.4-68.3l0,0c-1.1-0.2-53.9-8.8-52.3-81C633.4,1094.1,548.3,1023.6,532.4,1040z"/>
	</g>
</g>
</svg>
