<svg width="3256" height="3256" viewBox="0 0 3256 3256" fill="none" xmlns="http://www.w3.org/2000/svg">
<g clip-path="url(#clip0_624_23)">
<rect width="3256" height="3256" rx="696" fill="white"/>
<rect width="3256" height="3256" rx="696" fill="#121212"/>
<path d="M2044.9 1103.89C1984.33 1302.92 1915.81 1614.94 2126.34 1270.81C2142.72 1245.37 2175.48 1178.89 2175.48 1116.46C2175.48 1054.04 2175.48 1299.87 2175.48 1430.59C2171.29 1338.55 2179.94 1146.87 2248.06 1116.46L2378.64 1033L2393.21 1053.01C2369.59 1188.59 2358.64 1457.91 2503.79 1450.59C2648.95 1443.28 2393.79 1492.32 2248.06 1517.76C2000.71 1567.88 1490.4 1686.29 1428 1759" stroke="white" stroke-width="90"/>
<path d="M1626.81 1245.67C1603.44 1192.84 1538.01 1118.88 1463.23 1245.67C1369.76 1404.16 1355.22 1648.45 1518.8 1491.39C1649.66 1365.74 1675.35 1225.24 1671.84 1170.7H1646.76C1612.37 1274.08 1560.24 1482.95 1626.81 1491.39C1646.29 1493.85 1672.26 1466.1 1700.84 1421.26M1700.84 1421.26C1769.92 1312.86 1854.2 1104.6 1898.68 982C1863.91 1031.31 1812.33 1141.51 1884.15 1187.81C1973.92 1245.67 1819.61 1621.65 1700.84 1421.26Z" stroke="white" stroke-width="90"/>
<path d="M820.717 1267.49C875.699 1196.59 1002.5 1040.24 1069.85 982C1002.22 1159.58 890.291 1517.01 983.666 1526.15C1077.04 1535.28 1316.13 1167.19 1424 982C1399.08 1036.91 1343.12 1173.17 1318.7 1278.91C1294.27 1384.66 1162.98 1770.05 1100.38 1949.53C1047.4 2095.61 912.722 2384.74 797.887 2372.63C683.051 2360.53 737.292 2143 778.766 2035.75C846.4 1893.39 1089.54 1546.99 1377.2 1526.15" stroke="white" stroke-width="90"/>
<path d="M2056 1058L2084 974" stroke="white" stroke-width="90"/>
</g>
<defs>
<clipPath id="clip0_624_23">
<rect width="3256" height="3256" rx="696" fill="white"/>
</clipPath>
</defs>
</svg>
