<svg width="3256" height="3256" viewBox="0 0 3256 3256" fill="none" xmlns="http://www.w3.org/2000/svg">
<g clip-path="url(#clip0_624_13)">
<rect width="3256" height="3256" rx="696" fill="white"/>
<rect width="3256" height="3256" rx="696" fill="#121212"/>
<path d="M2593.5 1115.5C2487.5 1463.67 2367.6 2009.5 2736 1407.5C2764.67 1363 2822 1246.7 2822 1137.5C2822 1028.3 2822 1458.33 2822 1687C2814.67 1526 2829.8 1190.7 2949 1137.5L3177.5 991.5L3203 1026.5C3161.67 1263.67 3142.5 1734.8 3396.5 1722C3650.5 1709.2 3204 1795 2949 1839.5C2516.17 1927.17 1623.2 2134.3 1514 2261.5" stroke="white" stroke-width="150"/>
<path d="M1861.5 1364C1820.5 1271.33 1705.7 1141.6 1574.5 1364C1410.5 1642 1385 2070.5 1672 1795C1901.6 1574.6 1946.67 1328.17 1940.5 1232.5H1896.5C1836.17 1413.83 1744.7 1780.2 1861.5 1795C1895.68 1799.33 1941.25 1750.65 1991.38 1672M1991.38 1672C2112.58 1481.86 2260.45 1116.55 2338.5 901.5C2277.5 988 2187 1181.3 2313 1262.5C2470.5 1364 2199.77 2023.5 1991.38 1672Z" stroke="white" stroke-width="150"/>
<path d="M450.695 1401.5C547.028 1277.33 769.195 1003.5 887.195 901.5C768.695 1212.5 572.595 1838.5 736.195 1854.5C899.795 1870.5 1318.69 1225.83 1507.69 901.5C1464.03 997.667 1365.99 1236.3 1323.19 1421.5C1280.39 1606.7 1050.36 2281.67 940.695 2596C847.861 2851.83 611.895 3358.2 410.695 3337C209.495 3315.8 304.528 2934.83 377.195 2747C495.695 2497.67 921.695 1891 1425.69 1854.5" stroke="white" stroke-width="150"/>
<path d="M2613 1035.5L2661.5 888" stroke="white" stroke-width="150"/>
</g>
<defs>
<clipPath id="clip0_624_13">
<rect width="3256" height="3256" rx="696" fill="white"/>
</clipPath>
</defs>
</svg>
