<svg width="42" height="32" viewBox="0 0 42 32" fill="none" xmlns="http://www.w3.org/2000/svg">
<g clip-path="url(#clip0_628_33)">
<path d="M29.7825 3.46457C28.4291 7.57677 26.8983 14.0236 31.6018 6.91339C31.9678 6.3878 32.6998 5.01417 32.6998 3.72441C32.6998 2.43465 32.6998 7.51378 32.6998 10.2146C32.6062 8.31299 32.7994 4.35276 34.3213 3.72441L37.2386 2L37.5642 2.41339C37.0365 5.21457 36.7918 10.7791 40.0347 10.628C43.2776 10.4768 37.577 11.4902 34.3213 12.0157C28.7951 13.0512 17.3942 15.4976 16 17" stroke="#9F9F9F" stroke-width="2"/>
<path d="M20.9534 7.12095C20.4562 5.89455 19.064 4.1776 17.473 7.12095C15.4842 10.8001 15.1749 16.4711 18.6553 12.825C21.4397 9.90814 21.9862 6.64672 21.9114 5.38062H21.3778C20.6462 7.78047 19.537 12.6292 20.9534 12.825C21.3678 12.8823 21.9205 12.2381 22.5284 11.1972M22.5284 11.1972C23.9982 8.68077 25.7914 3.84602 26.7379 1C25.9982 2.14479 24.9007 4.70302 26.4287 5.77765C28.3386 7.12095 25.0555 15.8491 22.5284 11.1972Z" stroke="#9F9F9F" stroke-width="2"/>
<path d="M2.97949 7.15727C4.16616 5.62821 6.90289 2.25608 8.35646 1C6.89673 4.82982 4.4811 12.5387 6.49639 12.7358C8.51167 12.9328 13.6718 4.99401 16 1C15.4621 2.18425 14.2545 5.12291 13.7273 7.40356C13.2 9.68421 10.3664 17.9961 9.01549 21.867C7.87194 25.0174 4.96521 31.2531 2.48676 30.9921C0.00830532 30.731 1.17896 26.0396 2.07409 23.7265C3.53382 20.6561 8.78144 13.1852 14.9899 12.7358" stroke="#9F9F9F" stroke-width="2"/>
<path d="M30 3L31 0" stroke="#9F9F9F" stroke-width="2"/>
</g>
<defs>
<clipPath id="clip0_628_33">
<rect width="42" height="32" fill="white"/>
</clipPath>
</defs>
</svg>
