<svg width="352" height="379" viewBox="0 0 352 379" fill="none" xmlns="http://www.w3.org/2000/svg">
<g clip-path="url(#clip0_476_250)">
<rect width="352" height="379" fill="#EFEFEF"/>
<path d="M207.487 236.038C211.473 236.038 214.703 232.817 214.703 228.844C214.703 224.872 211.473 221.651 207.487 221.651C203.502 221.651 200.271 224.872 200.271 228.844C200.271 232.817 203.502 236.038 207.487 236.038Z" fill="black"/>
<path d="M205.355 209.445C205.328 208.736 205.029 208.065 204.521 207.569C204.013 207.072 203.333 206.788 202.622 206.775C198.368 206.916 194.336 208.701 191.377 211.752C188.419 214.802 186.766 218.88 186.769 223.123C186.769 223.845 187.057 224.538 187.569 225.049C188.082 225.56 188.777 225.847 189.502 225.847C190.223 225.834 190.91 225.542 191.419 225.034C191.929 224.526 192.221 223.841 192.235 223.123C192.233 220.306 193.325 217.598 195.282 215.566C197.238 213.535 199.908 212.337 202.731 212.224C203.447 212.196 204.122 211.889 204.613 211.369C205.104 210.849 205.37 210.159 205.355 209.445Z" fill="black"/>
<path d="M288.777 131.465C288.777 119.407 283.975 107.842 275.426 99.3101C266.878 90.7785 255.281 85.9782 243.185 85.9638C239.27 85.9531 235.373 86.4663 231.595 87.4896C230.309 77.4209 225.677 68.0715 218.44 60.9316C211.203 53.7916 201.777 49.2721 191.663 48.0934C181.55 46.9148 171.332 49.1448 162.637 54.4281C153.943 59.7113 147.273 67.7437 143.691 77.2449C134.804 70.0554 123.531 66.4566 112.108 67.1614C100.684 67.8663 89.9425 72.8235 82.0125 81.0506C74.0824 89.2777 69.5423 100.174 69.2919 111.581C69.0416 122.987 73.0992 134.072 80.6607 142.637C72.8789 151.025 68.5976 162.055 68.6887 173.48C68.6894 179.745 69.9915 185.943 72.5129 191.683C75.0343 197.422 78.7205 202.579 83.3393 206.829V386.656H237.117V287.915C237.131 281.965 239.509 276.263 243.729 272.056C247.95 267.848 253.67 265.478 259.639 265.464H262.373V177.621C262.373 175.986 262.373 174.406 262.373 172.771C270.267 169.113 276.947 163.28 281.626 155.962C286.304 148.643 288.785 140.144 288.777 131.465ZM256.906 177.621V260.124C250.504 260.779 244.525 263.613 239.975 268.149C235.424 272.685 232.581 278.646 231.923 285.027H191.197V287.915C191.22 298.82 195.421 309.303 202.94 317.224C210.459 325.144 220.729 329.903 231.65 330.529V381.316H88.806V211.189C95.4261 215.647 103.104 218.295 111.073 218.869C119.041 219.442 127.021 217.921 134.215 214.457C141.409 210.993 147.565 205.707 152.067 199.128C156.57 192.549 159.261 184.908 159.873 176.967H243.185C247.799 176.948 252.386 176.25 256.797 174.896C256.797 175.768 256.906 176.695 256.906 177.621ZM231.322 290.476V324.916C222.381 324.249 213.976 320.407 207.636 314.087C201.296 307.767 197.441 299.389 196.773 290.476H231.322ZM259.093 168.03C258.273 168.412 257.398 168.684 256.523 169.011C252.242 170.537 247.732 171.329 243.185 171.354H154.515V174.025C154.361 181.533 152.091 188.848 147.966 195.132C143.841 201.417 138.026 206.419 131.185 209.567C124.345 212.715 116.754 213.882 109.28 212.936C101.806 211.989 94.7489 208.967 88.9153 204.214C87.986 203.451 87.1113 202.633 86.2367 201.761C85.362 200.89 84.3233 199.8 83.4487 198.764C76.9468 190.985 73.6423 181.039 74.2002 170.928C74.758 160.818 79.1368 151.293 86.4553 144.271L88.478 142.31L86.346 140.784C82.6094 137.063 79.6446 132.644 77.621 127.781C75.5974 122.918 74.5545 117.704 74.552 112.439C74.5494 107.174 75.5873 101.96 77.6062 97.095C79.6251 92.2297 82.5856 87.8085 86.3187 84.0837C90.0517 80.359 94.4842 77.4036 99.363 75.3864C104.242 73.3692 109.471 72.3297 114.753 72.3272C120.035 72.3246 125.266 73.3592 130.147 75.3717C135.027 77.3842 139.463 80.3353 143.199 84.0565L146.534 87.4351L147.791 82.8577C150.391 73.8065 156.111 65.9596 163.944 60.6984C171.776 55.4372 181.22 53.0988 190.612 54.0949C200.004 55.091 208.742 59.3577 215.289 66.144C221.835 72.9303 225.771 81.8012 226.402 91.1951V94.7916L229.846 93.6473C239.475 90.0811 250.109 90.3317 259.558 94.3476C269.007 98.3635 276.551 105.839 280.637 115.234C284.722 124.628 285.037 135.227 281.517 144.847C277.997 154.466 270.911 162.374 261.717 166.94C260.897 167.376 260.022 168.03 259.093 168.03Z" fill="black"/>
</g>
<defs>
<clipPath id="clip0_476_250">
<rect width="352" height="379" fill="white"/>
</clipPath>
</defs>
</svg>
