<svg width="34" height="34" viewBox="0 0 34 34" fill="none" xmlns="http://www.w3.org/2000/svg">
<g clip-path="url(#clip0_577_166)">
<path d="M26.0312 0H7.96875C3.56773 0 0 3.56773 0 7.96875V26.0312C0 30.4323 3.56773 34 7.96875 34H26.0312C30.4323 34 34 30.4323 34 26.0312V7.96875C34 3.56773 30.4323 0 26.0312 0Z" fill="#00005B"/>
<path d="M13.9661 20.7347H8.69615L7.61943 24.078C7.59115 24.2055 7.47786 24.2905 7.35036 24.2764H4.68694C4.53115 24.2764 4.48865 24.1914 4.53115 24.0214L9.09272 10.9455C9.13522 10.8039 9.17772 10.6764 9.23443 10.5064C9.29115 10.2089 9.31943 9.89719 9.31943 9.58548C9.30536 9.51469 9.36194 9.4439 9.43272 9.42969H13.1019C13.2011 9.42969 13.2719 9.47219 13.2861 9.54298L18.4569 23.993C18.4994 24.1489 18.4569 24.2197 18.3154 24.2197H15.3544C15.2554 24.2339 15.1561 24.163 15.1279 24.0639L13.9661 20.6639V20.7347ZM9.51786 17.9155H13.1161C13.0311 17.618 12.9177 17.2639 12.7902 16.8955C12.6627 16.513 12.5352 16.1022 12.4077 15.6772C12.2661 15.238 12.1386 14.813 11.9969 14.3739C11.8552 13.9347 11.7279 13.5239 11.6144 13.113C11.5011 12.7164 11.4019 12.348 11.3027 12.008H11.2744C11.1469 12.6172 10.9911 13.2264 10.7927 13.8355C10.5802 14.5155 10.3677 15.2239 10.1411 15.9322C9.95694 16.6547 9.73036 17.3205 9.51786 17.9155ZM26.8011 19.4597H22.3104C22.3669 19.8989 22.5086 20.338 22.7494 20.7205C23.0044 21.103 23.3586 21.4005 23.7836 21.5705C24.3504 21.8114 24.9736 21.9389 25.5969 21.9247C26.0929 21.9105 26.5886 21.868 27.0704 21.7689C27.5024 21.7123 27.9258 21.6028 28.3311 21.443C28.4019 21.3864 28.4444 21.4147 28.4444 21.5564V23.7239C28.4444 23.7805 28.4304 23.8372 28.4161 23.8939C28.3879 23.9364 28.3594 23.9647 28.3169 23.993C27.8639 24.192 27.3881 24.3347 26.9004 24.418C26.2377 24.5454 25.5633 24.6024 24.8886 24.588C23.8119 24.588 22.9054 24.418 22.1686 24.0922C21.4744 23.7947 20.8654 23.3272 20.3836 22.7464C19.9351 22.2006 19.6025 21.5691 19.4061 20.8905C19.2079 20.2247 19.1086 19.5305 19.1086 18.8222C19.1086 18.0572 19.2219 17.3064 19.4629 16.5697C19.6887 15.8604 20.0495 15.2014 20.5254 14.6289C20.9929 14.0622 21.5736 13.6089 22.2394 13.283C22.9054 12.9572 23.6986 12.8439 24.6054 12.8439C25.3561 12.8297 26.1069 12.9714 26.8011 13.283C27.3819 13.538 27.8919 13.9205 28.2886 14.4164C28.6569 14.898 28.9544 15.4364 29.1386 16.0314C29.3229 16.598 29.4079 17.1789 29.4079 17.7597C29.4079 18.0997 29.3936 18.3972 29.3794 18.6664C29.3511 18.9355 29.3369 19.1339 29.3229 19.2614C29.3086 19.3605 29.2236 19.4455 29.1244 19.4455C29.0394 19.4455 28.8836 19.4597 28.6569 19.4739C28.4304 19.5022 28.1611 19.5164 27.8354 19.5164C27.5094 19.5164 27.1694 19.4597 26.8011 19.4597ZM22.3104 17.3914H25.2994C25.6679 17.3914 25.9369 17.3914 26.1069 17.3772C26.2204 17.363 26.3336 17.3347 26.4329 17.2639V17.1222C26.4334 16.944 26.4047 16.7669 26.3479 16.598C26.0929 15.8047 25.3419 15.2664 24.5061 15.2947C24.1217 15.2731 23.7392 15.3633 23.4048 15.5544C23.0705 15.7455 22.7986 16.0292 22.6219 16.3714C22.4519 16.6972 22.3529 17.0372 22.3104 17.3914Z" fill="#9999FF"/>
</g>
<defs>
<clipPath id="clip0_577_166">
<rect width="34" height="34" fill="white"/>
</clipPath>
</defs>
</svg>
