<svg width="34" height="34" viewBox="0 0 34 34" fill="none" xmlns="http://www.w3.org/2000/svg">
<g clip-path="url(#clip0_577_182)">
<path d="M26.0312 0H7.96875C3.56773 0 0 3.56773 0 7.96875V26.0312C0 30.4323 3.56773 34 7.96875 34H26.0312C30.4323 34 34 30.4323 34 26.0312V7.96875C34 3.56773 30.4323 0 26.0312 0Z" fill="#F4F2ED"/>
<path d="M14.0186 18.2329C14.1215 16.3894 15.0199 14.7653 16.3752 13.6139C17.7044 12.4831 19.4935 11.792 21.4456 11.792C23.3957 11.792 25.1848 12.4831 26.5149 13.6139C27.8694 14.7653 28.7677 16.3894 28.8716 18.2309C28.9744 20.125 28.2167 21.8847 26.8875 23.189C25.5321 24.5158 23.6044 25.3484 21.4456 25.3484C19.2869 25.3484 17.3553 24.5158 16.0008 23.189C14.6706 21.8847 13.9149 20.125 14.0186 18.2329Z" fill="white"/>
<path d="M17.6351 18.3984C17.6878 17.4525 18.1488 16.6191 18.8442 16.0284C19.5262 15.4481 20.4442 15.0935 21.4459 15.0935C22.4465 15.0935 23.3645 15.4481 24.0469 16.0284C24.7419 16.6191 25.2029 17.4525 25.2562 18.3973C25.3089 19.3693 24.9201 20.2721 24.2381 20.9415C23.5426 21.6223 22.5536 22.0494 21.4459 22.0494C20.3382 22.0494 19.3471 21.6223 18.652 20.9415C17.9697 20.2721 17.5818 19.3693 17.6351 18.3984Z" fill="#265787"/>
<path d="M11.5666 20.3097C11.5732 20.6799 11.6906 21.3992 11.8668 21.961C12.2373 23.1499 12.8656 24.2499 13.7396 25.2193C14.6367 26.2157 15.7413 27.0161 17.0173 27.5842C18.3584 28.181 19.8115 28.4851 21.3209 28.4826C22.8278 28.4806 24.2809 28.1705 25.6221 27.5692C26.898 26.9955 28.0017 26.1917 28.8972 25.1948C29.7709 24.2213 30.3981 23.1194 30.7695 21.9304C30.9547 21.3381 31.0727 20.7268 31.1214 20.1081C31.1678 19.5045 31.1483 18.8977 31.0633 18.2984C30.897 17.1229 30.4922 16.0199 29.8689 15.0145C29.299 14.0906 28.5641 13.2818 27.6905 12.601L27.6925 12.5994L18.8756 5.79715C18.8676 5.79104 18.8612 5.78453 18.8527 5.77909C18.2742 5.33284 17.3015 5.33443 16.6653 5.78161C16.0221 6.23384 15.9485 6.98157 16.521 7.45332L16.5184 7.45585L20.1959 10.4606L8.98743 10.4725H8.97255C8.04605 10.4736 7.15554 11.0843 6.9793 11.8562C6.79815 12.6424 7.42728 13.2947 8.39057 13.2983L8.38911 13.3017L14.0702 13.2907L3.93258 21.1095C3.9197 21.1191 3.90576 21.129 3.8938 21.1386C2.93755 21.8744 2.62836 23.0978 3.23067 23.8721C3.84201 24.6596 5.14184 24.661 6.10805 23.8766L11.6409 19.3268C11.6409 19.3268 11.5601 19.941 11.5666 20.3097ZM25.7838 22.3666C24.6439 23.5336 23.0479 24.1954 21.3209 24.1989C19.5914 24.2019 17.9954 23.5461 16.8555 22.3811C16.2985 21.8133 15.8892 21.1601 15.6368 20.4643C15.3886 19.7792 15.2931 19.0482 15.3571 18.3223C15.4173 17.6066 15.6294 16.9238 15.9679 16.3061C16.3005 15.6987 16.7584 15.1501 17.3239 14.6859C18.4321 13.7785 19.8429 13.2872 21.3184 13.2853C22.7954 13.2833 24.2052 13.7699 25.3145 14.6743C25.8789 15.1365 26.3365 15.6833 26.669 16.2895C27.0121 16.911 27.221 17.5976 27.2822 18.3049C27.3453 19.0303 27.2495 19.7607 27.0015 20.4453C26.7486 21.1431 26.3408 21.7963 25.7838 22.3666Z" fill="#EA7600"/>
</g>
<defs>
<clipPath id="clip0_577_182">
<rect width="34" height="34" fill="white"/>
</clipPath>
</defs>
</svg>
