<svg width="34" height="34" viewBox="0 0 34 34" fill="none" xmlns="http://www.w3.org/2000/svg">
<g clip-path="url(#clip0_581_255)">
<path d="M26.0312 0H7.96875C3.56773 0 0 3.56773 0 7.96875V26.0312C0 30.4323 3.56773 34 7.96875 34H26.0312C30.4323 34 34 30.4323 34 26.0312V7.96875C34 3.56773 30.4323 0 26.0312 0Z" fill="black"/>
<path d="M7.65002 23.6459V9.06843C7.65002 8.96921 7.69252 8.91264 7.79174 8.91264C8.03252 8.91264 8.25924 8.91264 8.58502 8.89843C8.92502 8.88421 9.27924 8.88421 9.66174 8.87014C10.0442 8.85593 10.455 8.85593 10.8942 8.84171C11.3333 8.82764 11.7583 8.82764 12.1833 8.82764C13.345 8.82764 14.3083 8.96921 15.1017 9.26671C15.8129 9.50824 16.4613 9.90508 17 10.4284C17.4565 10.8864 17.8092 11.4372 18.0342 12.0434C18.2467 12.6384 18.36 13.2476 18.36 13.8851C18.36 15.1034 18.0767 16.1092 17.51 16.9026C16.9433 17.6959 16.15 18.2909 15.2292 18.6309C14.2658 18.9851 13.2033 19.1126 12.0417 19.1126C11.7017 19.1126 11.475 19.1126 11.3333 19.0984C11.1917 19.0842 10.9933 19.0842 10.7242 19.0842V23.6317C10.7383 23.7309 10.6675 23.8159 10.5683 23.8301H7.82002C7.70674 23.8301 7.65002 23.7734 7.65002 23.6459ZM10.7383 11.6467V16.4067C10.9367 16.4209 11.1208 16.4351 11.2908 16.4351H12.0417C12.5942 16.4351 13.1467 16.3501 13.6708 16.1801C14.1242 16.0526 14.5208 15.7834 14.8325 15.4292C15.13 15.0751 15.2717 14.5934 15.2717 13.9701C15.285 13.5274 15.172 13.09 14.9458 12.7092C14.705 12.3409 14.365 12.0576 13.9542 11.9017C13.43 11.6892 12.8633 11.6042 12.2825 11.6184C11.9142 11.6184 11.5883 11.6184 11.3192 11.6326C11.0358 11.6184 10.8375 11.6326 10.7383 11.6467ZM27.2 15.5426C26.775 15.3159 26.3217 15.1601 25.84 15.0609C25.3158 14.9476 24.7917 14.8767 24.2533 14.8767C23.97 14.8626 23.6725 14.9051 23.4033 14.9759C23.2192 15.0184 23.0633 15.1176 22.9642 15.2592C22.8933 15.3726 22.8508 15.5142 22.8508 15.6417C22.8508 15.7692 22.9075 15.8967 22.9925 16.0101C23.12 16.1659 23.29 16.2934 23.4742 16.3926C23.8027 16.5627 24.1382 16.7187 24.48 16.8601C25.245 17.1151 25.9817 17.4692 26.6617 17.8942C27.1292 18.1917 27.5117 18.5884 27.7808 19.0701C28.0075 19.5234 28.1208 20.0192 28.1067 20.5292C28.1208 21.1951 27.9225 21.8609 27.5542 22.4134C27.1591 22.9789 26.6077 23.4171 25.9675 23.6742C25.2733 23.9717 24.4233 24.1276 23.4033 24.1276C22.7517 24.1276 22.1142 24.0709 21.4767 23.9434C20.9771 23.8571 20.4911 23.7047 20.0317 23.4901C19.9325 23.4334 19.8617 23.3342 19.8758 23.2209V20.7559C19.8758 20.7134 19.89 20.6567 19.9325 20.6284C19.975 20.6001 20.0175 20.6142 20.06 20.6426C20.6125 20.9684 21.1933 21.1951 21.8167 21.3367C22.355 21.4784 22.9217 21.5492 23.4883 21.5492C24.0267 21.5492 24.4092 21.4784 24.6642 21.3509C24.8908 21.2517 25.0467 21.0109 25.0467 20.7559C25.0467 20.5576 24.9333 20.3734 24.7067 20.1892C24.48 20.0051 24.0125 19.7926 23.3183 19.5234C22.6062 19.2725 21.93 18.9296 21.3067 18.5034C20.8628 18.187 20.495 17.7756 20.23 17.2992C20.0033 16.8459 19.89 16.3501 19.9042 15.8542C19.9042 15.2451 20.0742 14.6642 20.3858 14.1401C20.74 13.5734 21.2642 13.1201 21.8733 12.8367C22.5392 12.4967 23.375 12.3409 24.3808 12.3409C24.9617 12.3409 25.5567 12.3834 26.1375 12.4684C26.5625 12.5251 26.9733 12.6384 27.3558 12.7942C27.4125 12.8084 27.4692 12.8651 27.4975 12.9217C27.5117 12.9784 27.5258 13.0351 27.5258 13.0917V15.4009C27.5258 15.4576 27.4975 15.5142 27.455 15.5426C27.3275 15.5709 27.2567 15.5709 27.2 15.5426Z" fill="black"/>
<path d="M17.5 16.9999C17.5 14.9955 19.1618 13.3706 21.2118 13.3706C23.2618 13.3706 24.9236 14.9955 24.9236 16.9999C24.9236 19.0044 23.2618 20.6293 21.2118 20.6293C19.1618 20.6293 17.5 19.0044 17.5 16.9999Z" fill="#1ABCFE"/>
<path d="M10.0764 24.2587C10.0764 22.2543 11.7383 20.6294 13.7882 20.6294H17.5001V24.2587C17.5001 26.2632 15.8382 27.8881 13.7882 27.8881C11.7383 27.8881 10.0764 26.2632 10.0764 24.2587Z" fill="#0ACF83"/>
<path d="M17.5 6.11206V13.3707H21.2118C23.2618 13.3707 24.9236 11.7458 24.9236 9.7414C24.9236 7.73697 23.2618 6.11206 21.2118 6.11206H17.5Z" fill="#FF7262"/>
<path d="M10.0764 9.7414C10.0764 11.7458 11.7383 13.3707 13.7882 13.3707H17.5001V6.11206H13.7882C11.7383 6.11206 10.0764 7.73697 10.0764 9.7414Z" fill="#F24E1E"/>
<path d="M10.0764 16.9999C10.0764 19.0044 11.7383 20.6293 13.7882 20.6293H17.5001V13.3706H13.7882C11.7383 13.3706 10.0764 14.9955 10.0764 16.9999Z" fill="#A259FF"/>
</g>
<defs>
<clipPath id="clip0_581_255">
<rect width="34" height="34" fill="white"/>
</clipPath>
</defs>
</svg>
