<svg width="34" height="34" viewBox="0 0 34 34" fill="none" xmlns="http://www.w3.org/2000/svg">
<g clip-path="url(#clip0_577_178)">
<path d="M26.0312 0H7.96875C3.56773 0 0 3.56773 0 7.96875V26.0312C0 30.4323 3.56773 34 7.96875 34H26.0312C30.4323 34 34 30.4323 34 26.0312V7.96875C34 3.56773 30.4323 0 26.0312 0Z" fill="#330000"/>
<path d="M16.4333 20.2318H11.1633L10.0866 23.561C10.0583 23.6885 9.94502 23.7735 9.81752 23.7593H7.1541C6.99831 23.7593 6.95581 23.6743 6.99831 23.5043L11.56 10.3718C11.6025 10.2302 11.645 10.0743 11.7016 9.90427C11.7583 9.60677 11.7866 9.29519 11.7866 8.98348C11.7725 8.91269 11.8291 8.84177 11.9 8.82769H15.5691C15.6825 8.82769 15.7391 8.87019 15.7533 8.94098L20.9241 23.5327C20.9666 23.6885 20.9241 23.7593 20.7825 23.7593H17.8216C17.7225 23.7735 17.6233 23.7027 17.595 23.6035L16.4333 20.2318ZM11.985 17.356H15.5833C15.4983 17.0585 15.385 16.7043 15.2575 16.336C15.13 15.9535 15.0025 15.5427 14.875 15.1177C14.7333 14.6785 14.6058 14.2535 14.4641 13.8143C14.3225 13.3752 14.195 12.9643 14.0816 12.5535C13.9683 12.1569 13.8691 11.7885 13.77 11.4485H13.7416C13.6141 12.0577 13.4583 12.6669 13.26 13.276C13.0475 13.956 12.835 14.6643 12.6083 15.3727C12.4253 16.0413 12.2174 16.7029 11.985 17.356ZM24.0833 11.3068C23.6158 11.321 23.1625 11.1368 22.8225 10.811C22.4967 10.4568 22.3267 9.98927 22.3408 9.50769C22.3267 9.02598 22.5108 8.57269 22.8508 8.24677C23.1908 7.92098 23.6442 7.75098 24.1117 7.75098C24.6642 7.75098 25.0892 7.92098 25.4008 8.24677C25.7148 8.59023 25.8825 9.04256 25.8683 9.50769C25.8825 9.98927 25.7125 10.4568 25.3725 10.811C25.0467 11.151 24.565 11.3352 24.0833 11.3068ZM22.4967 23.6035V12.6952C22.4967 12.5535 22.5533 12.4968 22.6808 12.4968H25.4858C25.6133 12.4968 25.67 12.5677 25.67 12.6952V23.6035C25.67 23.7593 25.6133 23.8302 25.4858 23.8302H22.7092C22.5675 23.8302 22.4967 23.7452 22.4967 23.6035Z" fill="#FF9A00"/>
</g>
<defs>
<clipPath id="clip0_577_178">
<rect width="34" height="34" fill="white"/>
</clipPath>
</defs>
</svg>
