<svg width="34" height="34" viewBox="0 0 34 34" fill="none" xmlns="http://www.w3.org/2000/svg">
<g clip-path="url(#clip0_577_170)">
<path d="M26.0312 0H7.96875C3.56773 0 0 3.56773 0 7.96875V26.0312C0 30.4323 3.56773 34 7.96875 34H26.0312C30.4323 34 34 30.4323 34 26.0312V7.96875C34 3.56773 30.4323 0 26.0312 0Z" fill="#00005B"/>
<path d="M7.17188 24.2622V9.67048C7.17188 9.5714 7.21438 9.51469 7.31359 9.51469C7.55438 9.51469 7.78109 9.51469 8.10688 9.50048C8.44688 9.4864 8.80109 9.4864 9.18359 9.47219C9.56609 9.45798 9.97688 9.45798 10.4161 9.4439C10.8552 9.42969 11.2802 9.42969 11.7052 9.42969C12.8669 9.42969 13.8302 9.5714 14.6236 9.8689C15.3347 10.1104 15.9832 10.5072 16.5219 11.0305C16.9784 11.4885 17.3311 12.0393 17.5561 12.6455C17.7686 13.2405 17.8819 13.8497 17.8819 14.4872C17.8819 15.7055 17.5986 16.7114 17.0319 17.5047C16.4652 18.298 15.6719 18.893 14.7511 19.233C13.7877 19.5872 12.7252 19.7147 11.5636 19.7147C11.2236 19.7147 10.9969 19.7147 10.8552 19.7005C10.7136 19.6864 10.5152 19.6864 10.2461 19.6864V24.2339C10.2602 24.333 10.1894 24.418 10.0902 24.4322H7.34187C7.22859 24.4322 7.17188 24.3755 7.17188 24.248V24.2622ZM10.2602 12.263V17.023C10.4586 17.0372 10.6427 17.0514 10.8127 17.0514H11.5636C12.1161 17.0514 12.6686 16.9664 13.1927 16.7964C13.6461 16.6689 14.0427 16.3997 14.3544 16.0455C14.6519 15.6914 14.7936 15.2097 14.7936 14.5864C14.8069 14.1437 14.6938 13.7063 14.4677 13.3255C14.2269 12.9572 13.8869 12.6739 13.4761 12.518C12.9519 12.3055 12.3852 12.2205 11.8044 12.2347C11.4361 12.2347 11.1102 12.2347 10.8411 12.2489C10.5577 12.2347 10.3594 12.2489 10.2602 12.263ZM19.9219 13.0989H22.4011C22.5428 13.0989 22.6561 13.198 22.6986 13.3255C22.7411 13.4389 22.7694 13.5522 22.7836 13.6797C22.8119 13.8214 22.8403 13.9772 22.8544 14.1189C22.8686 14.2747 22.8828 14.4447 22.8828 14.6289C23.3081 14.1323 23.8221 13.7191 24.3986 13.4105C25.0503 13.0422 25.8011 12.858 26.5519 12.858C26.6511 12.8439 26.7361 12.9147 26.7503 13.0139V15.833C26.7503 15.9464 26.6794 15.9889 26.5236 15.9889C26.0136 15.9747 25.4894 16.0172 24.9936 16.1305C24.5828 16.2155 24.1861 16.343 23.8036 16.513C23.5344 16.6405 23.2794 16.8105 23.0811 17.0372V24.2622C23.0811 24.4039 23.0244 24.4605 22.8969 24.4605H20.1061C19.9928 24.4747 19.8936 24.4039 19.8794 24.2905V16.3855C19.8794 16.0455 19.8794 15.6914 19.8653 15.323C19.8511 14.9547 19.8511 14.5864 19.8369 14.218C19.8369 13.8922 19.8086 13.5805 19.7803 13.2547C19.7661 13.1839 19.8086 13.113 19.8794 13.0989C19.8794 13.0847 19.9078 13.0847 19.9219 13.0989Z" fill="#9999FF"/>
</g>
<defs>
<clipPath id="clip0_577_170">
<rect width="34" height="34" fill="white"/>
</clipPath>
</defs>
</svg>
