<svg width="34" height="34" viewBox="0 0 34 34" fill="none" xmlns="http://www.w3.org/2000/svg">
<g clip-path="url(#clip0_581_265)">
<path d="M26.0312 0H7.96875C3.56773 0 0 3.56773 0 7.96875V26.0312C0 30.4323 3.56773 34 7.96875 34H26.0312C30.4323 34 34 30.4323 34 26.0312V7.96875C34 3.56773 30.4323 0 26.0312 0Z" fill="#F8F8F8"/>
<path d="M7.65002 23.6459V9.06843C7.65002 8.96921 7.69252 8.91264 7.79174 8.91264C8.03252 8.91264 8.25924 8.91264 8.58502 8.89843C8.92502 8.88421 9.27924 8.88421 9.66174 8.87014C10.0442 8.85593 10.455 8.85593 10.8942 8.84171C11.3333 8.82764 11.7583 8.82764 12.1833 8.82764C13.345 8.82764 14.3083 8.96921 15.1017 9.26671C15.8129 9.50824 16.4613 9.90508 17 10.4284C17.4565 10.8864 17.8092 11.4372 18.0342 12.0434C18.2467 12.6384 18.36 13.2476 18.36 13.8851C18.36 15.1034 18.0767 16.1092 17.51 16.9026C16.9433 17.6959 16.15 18.2909 15.2292 18.6309C14.2658 18.9851 13.2033 19.1126 12.0417 19.1126C11.7017 19.1126 11.475 19.1126 11.3333 19.0984C11.1917 19.0842 10.9933 19.0842 10.7242 19.0842V23.6317C10.7383 23.7309 10.6675 23.8159 10.5683 23.8301H7.82002C7.70674 23.8301 7.65002 23.7734 7.65002 23.6459ZM10.7383 11.6467V16.4067C10.9367 16.4209 11.1208 16.4351 11.2908 16.4351H12.0417C12.5942 16.4351 13.1467 16.3501 13.6708 16.1801C14.1242 16.0526 14.5208 15.7834 14.8325 15.4292C15.13 15.0751 15.2717 14.5934 15.2717 13.9701C15.285 13.5274 15.172 13.09 14.9458 12.7092C14.705 12.3409 14.365 12.0576 13.9542 11.9017C13.43 11.6892 12.8633 11.6042 12.2825 11.6184C11.9142 11.6184 11.5883 11.6184 11.3192 11.6326C11.0358 11.6184 10.8375 11.6326 10.7383 11.6467ZM27.2 15.5426C26.775 15.3159 26.3217 15.1601 25.84 15.0609C25.3158 14.9476 24.7917 14.8767 24.2533 14.8767C23.97 14.8626 23.6725 14.9051 23.4033 14.9759C23.2192 15.0184 23.0633 15.1176 22.9642 15.2592C22.8933 15.3726 22.8508 15.5142 22.8508 15.6417C22.8508 15.7692 22.9075 15.8967 22.9925 16.0101C23.12 16.1659 23.29 16.2934 23.4742 16.3926C23.8027 16.5627 24.1382 16.7187 24.48 16.8601C25.245 17.1151 25.9817 17.4692 26.6617 17.8942C27.1292 18.1917 27.5117 18.5884 27.7808 19.0701C28.0075 19.5234 28.1208 20.0192 28.1067 20.5292C28.1208 21.1951 27.9225 21.8609 27.5542 22.4134C27.1591 22.9789 26.6077 23.4171 25.9675 23.6742C25.2733 23.9717 24.4233 24.1276 23.4033 24.1276C22.7517 24.1276 22.1142 24.0709 21.4767 23.9434C20.9771 23.8571 20.4911 23.7047 20.0317 23.4901C19.9325 23.4334 19.8617 23.3342 19.8758 23.2209V20.7559C19.8758 20.7134 19.89 20.6567 19.9325 20.6284C19.975 20.6001 20.0175 20.6142 20.06 20.6426C20.6125 20.9684 21.1933 21.1951 21.8167 21.3367C22.355 21.4784 22.9217 21.5492 23.4883 21.5492C24.0267 21.5492 24.4092 21.4784 24.6642 21.3509C24.8908 21.2517 25.0467 21.0109 25.0467 20.7559C25.0467 20.5576 24.9333 20.3734 24.7067 20.1892C24.48 20.0051 24.0125 19.7926 23.3183 19.5234C22.6062 19.2725 21.93 18.9296 21.3067 18.5034C20.8628 18.187 20.495 17.7756 20.23 17.2992C20.0033 16.8459 19.89 16.3501 19.9042 15.8542C19.9042 15.2451 20.0742 14.6642 20.3858 14.1401C20.74 13.5734 21.2642 13.1201 21.8733 12.8367C22.5392 12.4967 23.375 12.3409 24.3808 12.3409C24.9617 12.3409 25.5567 12.3834 26.1375 12.4684C26.5625 12.5251 26.9733 12.6384 27.3558 12.7942C27.4125 12.8084 27.4692 12.8651 27.4975 12.9217C27.5117 12.9784 27.5258 13.0351 27.5258 13.0917V15.4009C27.5258 15.4576 27.4975 15.5142 27.455 15.5426C27.3275 15.5709 27.2567 15.5709 27.2 15.5426Z" fill="#F8F8F8"/>
<g clip-path="url(#clip1_581_265)">
<mask id="mask0_581_265" style="mask-type:alpha" maskUnits="userSpaceOnUse" x="7" y="7" width="20" height="20">
<path fill-rule="evenodd" clip-rule="evenodd" d="M21.1824 26.8634C21.4974 26.9861 21.8566 26.9782 22.1745 26.8252L26.2922 24.8439C26.7248 24.6357 27 24.1978 27 23.7174V10.2826C27 9.8022 26.7249 9.3643 26.2922 9.1561L22.1745 7.17469C21.7572 6.97391 21.2689 7.02309 20.9027 7.28933C20.8504 7.32736 20.8006 7.36982 20.7538 7.41662L12.871 14.6082L9.43744 12.0019C9.1178 11.7592 8.67073 11.7791 8.37387 12.0492L7.27261 13.0509C6.90949 13.3812 6.90907 13.9525 7.27171 14.2833L10.2494 17L7.27171 19.7166C6.90907 20.0474 6.90949 20.6187 7.27261 20.949L8.37387 21.9508C8.67073 22.2208 9.1178 22.2407 9.43744 21.998L12.871 19.3917L20.7538 26.5833C20.8785 26.7081 21.0249 26.802 21.1824 26.8634ZM22.003 12.4597L16.0218 17L22.003 21.5402V12.4597Z" fill="white"/>
</mask>
<g mask="url(#mask0_581_265)">
<path d="M26.2922 9.1595L22.1713 7.17537C21.6943 6.94571 21.1243 7.04258 20.7499 7.41693L7.25967 19.7169C6.89681 20.0477 6.89723 20.619 7.26057 20.9493L8.36249 21.9511C8.65954 22.2211 9.10689 22.241 9.42671 21.9984L25.6721 9.67424C26.2171 9.26078 27 9.6495 27 10.3336V10.2858C27 9.80556 26.7249 9.36782 26.2922 9.1595Z" fill="#0065A9"/>
<g filter="url(#filter0_d_581_265)">
<path d="M26.2922 24.8408L22.1713 26.8249C21.6943 27.0546 21.1243 26.9577 20.7499 26.5834L7.25967 14.2834C6.89681 13.9526 6.89723 13.3813 7.26057 13.051L8.36249 12.0492C8.65954 11.7792 9.10689 11.7593 9.42671 12.0019L25.6721 24.3261C26.2171 24.7395 27 24.3508 27 23.6667V23.7146C27 24.1947 26.7249 24.6325 26.2922 24.8408Z" fill="#007ACC"/>
</g>
<g filter="url(#filter1_d_581_265)">
<path d="M22.1716 26.8252C21.6944 27.0548 21.1244 26.9577 20.75 26.5833C21.2113 27.0446 22 26.7179 22 26.0655V7.93439C22 7.28204 21.2113 6.95534 20.75 7.41662C21.1244 7.04224 21.6944 6.94523 22.1716 7.17469L26.2917 9.1561C26.7247 9.3643 27 9.8022 27 10.2826V23.7174C27 24.1978 26.7247 24.6357 26.2917 24.8439L22.1716 26.8252Z" fill="#1F9CF0"/>
</g>
<g style="mix-blend-mode:overlay" opacity="0.25">
<path fill-rule="evenodd" clip-rule="evenodd" d="M21.1702 26.8634C21.4852 26.9861 21.8444 26.9782 22.1623 26.8252L26.2799 24.8439C26.7126 24.6357 26.9878 24.1978 26.9878 23.7174V10.2826C26.9878 9.80219 26.7126 9.36429 26.28 9.15609L22.1623 7.17469C21.745 6.97391 21.2567 7.02309 20.8905 7.28933C20.8382 7.32736 20.7883 7.36983 20.7416 7.41662L12.8588 14.6082L9.42523 12.0019C9.10561 11.7592 8.65852 11.7791 8.36166 12.0492L7.2604 13.0509C6.89728 13.3812 6.89687 13.9525 7.2595 14.2833L10.2372 17L7.2595 19.7166C6.89687 20.0474 6.89728 20.6187 7.2604 20.949L8.36166 21.9508C8.65852 22.2208 9.10561 22.2407 9.42523 21.9981L12.8588 19.3917L20.7416 26.5833C20.8663 26.7081 21.0127 26.802 21.1702 26.8634ZM21.9908 12.4597L16.0096 17L21.9908 21.5402V12.4597Z" fill="url(#paint0_linear_581_265)"/>
</g>
</g>
</g>
</g>
<defs>
<filter id="filter0_d_581_265" x="-1.34555" y="3.49918" width="36.6789" height="31.7824" filterUnits="userSpaceOnUse" color-interpolation-filters="sRGB">
<feFlood flood-opacity="0" result="BackgroundImageFix"/>
<feColorMatrix in="SourceAlpha" type="matrix" values="0 0 0 0 0 0 0 0 0 0 0 0 0 0 0 0 0 0 127 0" result="hardAlpha"/>
<feOffset/>
<feGaussianBlur stdDeviation="4.16667"/>
<feColorMatrix type="matrix" values="0 0 0 0 0 0 0 0 0 0 0 0 0 0 0 0 0 0 0.25 0"/>
<feBlend mode="overlay" in2="BackgroundImageFix" result="effect1_dropShadow_581_265"/>
<feBlend mode="normal" in="SourceGraphic" in2="effect1_dropShadow_581_265" result="shape"/>
</filter>
<filter id="filter1_d_581_265" x="12.4167" y="-1.28183" width="22.9167" height="36.5637" filterUnits="userSpaceOnUse" color-interpolation-filters="sRGB">
<feFlood flood-opacity="0" result="BackgroundImageFix"/>
<feColorMatrix in="SourceAlpha" type="matrix" values="0 0 0 0 0 0 0 0 0 0 0 0 0 0 0 0 0 0 127 0" result="hardAlpha"/>
<feOffset/>
<feGaussianBlur stdDeviation="4.16667"/>
<feColorMatrix type="matrix" values="0 0 0 0 0 0 0 0 0 0 0 0 0 0 0 0 0 0 0.25 0"/>
<feBlend mode="overlay" in2="BackgroundImageFix" result="effect1_dropShadow_581_265"/>
<feBlend mode="normal" in="SourceGraphic" in2="effect1_dropShadow_581_265" result="shape"/>
</filter>
<linearGradient id="paint0_linear_581_265" x1="16.9878" y1="7.05151" x2="16.9878" y2="26.9484" gradientUnits="userSpaceOnUse">
<stop stop-color="white"/>
<stop offset="1" stop-color="white" stop-opacity="0"/>
</linearGradient>
<clipPath id="clip0_581_265">
<rect width="34" height="34" fill="white"/>
</clipPath>
<clipPath id="clip1_581_265">
<rect width="20" height="20" fill="white" transform="translate(7 7)"/>
</clipPath>
</defs>
</svg>
